<svg width="1440" height="900" viewBox="0 0 1440 900" fill="none" xmlns="http://www.w3.org/2000/svg">
<path fill-rule="evenodd" clip-rule="evenodd" d="M105.777 1022.5C232.177 1010.48 218.705 893.603 291.277 867C435.677 814.068 580.777 864.543 580.777 759C580.777 689.564 444.234 679.417 380.177 634.804C327.84 586.514 314.983 506 234.898 506C166.293 506 105.777 459 14 597C-39.7229 677.78 -39.7229 732.506 -39.7229 816C-39.7229 892.5 31.6128 1029.56 105.777 1022.5Z" fill="#D0F5EF"/>
<path fill-rule="evenodd" clip-rule="evenodd" d="M120 649.949C173.771 662.391 448.5 692.449 482.172 521.56C522.009 319.385 482.172 388.783 482.172 220.713C482.172 110.141 511.913 80.0426 428.5 9C360.348 -67.8993 417.891 -120 313.607 -120C224.272 -120 78.4597 -111.553 13.9236 -53.1936C-71.6695 24.2072 53.5673 183.455 53.5673 316.413C53.5673 438.233 24.6808 627.893 120 649.949Z" fill="#FAE5A5"/>
<g filter="url(#filter0_f)">
<rect x="202.952" y="710.133" width="1175.74" height="170.498" fill="#C4C4C4" fill-opacity="0.69"/>
</g>
<g filter="url(#filter1_d)">
<path d="M127.932 50.6159C420.932 -65.692 1259.43 -15.8843 1514.43 -37.3842C1863.6 -66.8241 1846.82 969.291 1497.93 936.616C1166.93 905.616 191.432 931.615 81.9318 872.616C-59.3596 796.486 56.4962 633.811 101.432 470.116C150.432 291.616 -28.8126 112.837 127.932 50.6159Z" fill="#ACA5FA"/>
<path d="M127.969 50.7088C201.205 21.6373 308.537 2.94353 432.332 -9.07857C556.125 -21.1005 696.372 -26.4502 835.434 -28.8372C946.399 -30.7419 1056.61 -30.7601 1157.1 -30.7768C1182.54 -30.781 1207.36 -30.7851 1231.42 -30.8197C1350.46 -30.991 1450.69 -31.9092 1514.44 -37.2846C1601.67 -44.6393 1666.06 14.5505 1708.13 107.02C1750.2 199.487 1769.93 325.204 1767.85 450.827C1765.77 576.45 1741.88 701.965 1696.71 794.029C1651.54 886.095 1585.1 944.679 1497.94 936.516C1364.03 923.974 1124.62 920.762 879.757 917.477C821.995 916.701 763.928 915.922 706.871 915.016C557.402 912.641 414.857 909.391 302.836 903.047C246.825 899.875 198.447 895.93 160.651 890.935C141.753 888.437 125.502 885.677 112.265 882.619C99.0273 879.562 88.8111 876.209 81.9793 872.528C46.6766 853.506 27.4453 829.085 19.1483 800.6C10.8499 772.11 13.4858 739.543 21.9439 704.226C30.4019 668.91 44.6788 630.856 59.6522 591.395C60.1778 590.01 60.7043 588.623 61.2314 587.234C75.7193 549.067 90.6874 509.635 101.528 470.143C113.784 425.498 111.767 380.84 104.301 337.997C98.9657 307.382 90.8467 277.687 83.1638 249.588C80.0962 238.369 77.0982 227.404 74.3747 216.736C64.8279 179.343 58.655 145.605 64.6532 117.331C70.6488 89.07 88.8084 66.2538 127.969 50.7088Z" stroke="#C4C4C4" stroke-width="0.2"/>
</g>
<defs>
<filter id="filter0_f" x="122.952" y="630.133" width="1335.74" height="330.498" filterUnits="userSpaceOnUse" color-interpolation-filters="sRGB">
<feFlood flood-opacity="0" result="BackgroundImageFix"/>
<feBlend mode="normal" in="SourceGraphic" in2="BackgroundImageFix" result="shape"/>
<feGaussianBlur stdDeviation="40" result="effect1_foregroundBlur"/>
</filter>
<filter id="filter1_d" x="10" y="-38" width="1762.1" height="983.373" filterUnits="userSpaceOnUse" color-interpolation-filters="sRGB">
<feFlood flood-opacity="0" result="BackgroundImageFix"/>
<feColorMatrix in="SourceAlpha" type="matrix" values="0 0 0 0 0 0 0 0 0 0 0 0 0 0 0 0 0 0 127 0"/>
<feOffset dy="4"/>
<feGaussianBlur stdDeviation="2"/>
<feColorMatrix type="matrix" values="0 0 0 0 0 0 0 0 0 0 0 0 0 0 0 0 0 0 0.25 0"/>
<feBlend mode="normal" in2="BackgroundImageFix" result="effect1_dropShadow"/>
<feBlend mode="normal" in="SourceGraphic" in2="effect1_dropShadow" result="shape"/>
</filter>
</defs>
</svg>
