<svg width="72" height="74" viewBox="0 0 72 74" fill="none" xmlns="http://www.w3.org/2000/svg">
<path d="M66.8395 40C53.8395 53.8667 58.2107 74 37.5 74C16.7893 74 0 57.4345 0 37C0 16.5655 16.7893 0 37.5 0C58.2107 0 81.8395 24 66.8395 40Z" fill="#D8E0BB"/>
<path d="M9.19221 24.7237C9.57928 23.5902 10.6531 22.8583 11.8509 22.8583C13.7931 22.8583 15.1994 24.7254 14.7124 26.6055C13.9587 29.5157 13.0394 33.4542 12.8814 35.8939C12.7153 38.4588 13.5614 42.4705 14.2576 45.246C14.6652 46.8709 13.5659 48.5236 11.9006 48.7063C10.6994 48.838 9.56117 48.1483 9.17177 47.0043C8.27054 44.3566 6.81035 39.509 6.81036 35.8939C6.81036 32.2514 8.29281 27.3576 9.19221 24.7237Z" fill="white"/>
<circle cx="17.3395" cy="55" r="3" fill="white"/>
</svg>
